<?xml version="1.0" standalone="no"?><!DOCTYPE svg PUBLIC "-//W3C//DTD SVG 1.1//EN" "http://www.w3.org/Graphics/SVG/1.1/DTD/svg11.dtd"><svg class="icon" width="200px" height="200.00px" viewBox="0 0 1024 1024" version="1.1" xmlns="http://www.w3.org/2000/svg"><path d="M310.72 489.28a32 32 0 0 1-45.44 45.44l-128-128a32 32 0 0 1 0-45.44l128-128a32 32 0 1 1 45.44 45.44L205.12 384z" fill="#000000" /><path d="M160 416a32 32 0 0 1 0-64h384a32 32 0 0 1 0 64z m553.28 118.72a32 32 0 0 1 45.44-45.44l128 128a32 32 0 0 1 0 45.44l-128 128a32 32 0 0 1-45.44-45.44L818.88 640z" fill="#000000" /><path d="M864 608a32 32 0 0 1 0 64H480a32 32 0 0 1 0-64z" fill="#000000" /></svg>